# xmcd CD database file
#
# Track frame offsets:
#	150
#	13285
#	30717
#	40327
#	62400
#	76055
#	90662
#	113397
#	130905
#	142835
#	163585
#	182997
#
# Disc length: 2615 seconds
#
# Revision: 0
# Processed by: cddbd v1.5.2PL0 Copyright (c) Steve Scherf et al.
# Submitted via: CDex 1.70beta2
#
DISCID=900a350c
DTITLE=Hilde Louise Asbjørnsen - No vil eg vake med deg
DYEAR=2006
DGENRE=Jazz
TTITLE0=Å legg til ved ei brygge
TTITLE1=Vise frå Utanmyra
TTITLE2=Du
TTITLE3=Kvar tok vinen vegen?
TTITLE4=Ka e det?
TTITLE5=No vil eg vake med deg
TTITLE6=Ingenting
TTITLE7=Kvar vart de av?
TTITLE8=Ein haltande sommarvals
TTITLE9=Mr. Kelly
TTITLE10=Kven tenker han på?
TTITLE11=Eg veit ei herlig rose
EXTD=YEAR: 2006
EXTT0=
EXTT1=
EXTT2=
EXTT3=
EXTT4=
EXTT5=
EXTT6=
EXTT7=
EXTT8=
EXTT9=
EXTT10=
EXTT11=
PLAYORDER=
